<mxfile host="app.diagrams.net" modified="2023-03-24T18:19:13.506Z" agent="Mozilla/5.0 (Windows NT 10.0; Win64; x64) AppleWebKit/537.36 (KHTML, like Gecko) Chrome/111.0.0.0 Safari/537.36 Edg/111.0.1661.51" etag="s-P_NWPaIzncmcmnt7bZ" version="21.1.1" type="device">
  <diagram name="Страница 1" id="JufjHoNoAxwizOQT1gtI">
    <mxGraphModel dx="792" dy="1138" grid="1" gridSize="10" guides="1" tooltips="1" connect="1" arrows="1" fold="1" page="1" pageScale="1" pageWidth="827" pageHeight="1169" math="0" shadow="0">
      <root>
        <mxCell id="0" />
        <mxCell id="1" parent="0" />
        <mxCell id="CC1CXsjN8z8HudOatYF--3" style="edgeStyle=orthogonalEdgeStyle;rounded=0;orthogonalLoop=1;jettySize=auto;html=1;" edge="1" parent="1" source="CC1CXsjN8z8HudOatYF--1" target="CC1CXsjN8z8HudOatYF--2">
          <mxGeometry relative="1" as="geometry" />
        </mxCell>
        <mxCell id="CC1CXsjN8z8HudOatYF--1" value="Начало&lt;br&gt;printAllTrains" style="ellipse;whiteSpace=wrap;html=1;" vertex="1" parent="1">
          <mxGeometry x="354" y="50" width="120" height="80" as="geometry" />
        </mxCell>
        <mxCell id="CC1CXsjN8z8HudOatYF--5" style="edgeStyle=orthogonalEdgeStyle;rounded=0;orthogonalLoop=1;jettySize=auto;html=1;" edge="1" parent="1" source="CC1CXsjN8z8HudOatYF--2" target="CC1CXsjN8z8HudOatYF--4">
          <mxGeometry relative="1" as="geometry" />
        </mxCell>
        <mxCell id="CC1CXsjN8z8HudOatYF--2" value="rewind(file)" style="rounded=0;whiteSpace=wrap;html=1;" vertex="1" parent="1">
          <mxGeometry x="354" y="150" width="120" height="60" as="geometry" />
        </mxCell>
        <mxCell id="CC1CXsjN8z8HudOatYF--7" style="edgeStyle=orthogonalEdgeStyle;rounded=0;orthogonalLoop=1;jettySize=auto;html=1;entryX=0.5;entryY=0;entryDx=0;entryDy=0;" edge="1" parent="1" source="CC1CXsjN8z8HudOatYF--4" target="CC1CXsjN8z8HudOatYF--6">
          <mxGeometry relative="1" as="geometry">
            <Array as="points">
              <mxPoint x="259" y="265" />
            </Array>
          </mxGeometry>
        </mxCell>
        <mxCell id="CC1CXsjN8z8HudOatYF--10" style="edgeStyle=orthogonalEdgeStyle;rounded=0;orthogonalLoop=1;jettySize=auto;html=1;entryX=0.5;entryY=0;entryDx=0;entryDy=0;" edge="1" parent="1" source="CC1CXsjN8z8HudOatYF--4" target="CC1CXsjN8z8HudOatYF--9">
          <mxGeometry relative="1" as="geometry" />
        </mxCell>
        <mxCell id="CC1CXsjN8z8HudOatYF--4" value="&lt;div style=&quot;font-size: 14px; line-height: 19px;&quot;&gt;&lt;span style=&quot;background-color: rgb(255, 255, 255);&quot;&gt;fread(&amp;amp;train, sizeof(struct TRAIN), 1, file)&lt;/span&gt;&lt;/div&gt;" style="rhombus;whiteSpace=wrap;html=1;" vertex="1" parent="1">
          <mxGeometry x="319" y="230" width="190" height="70" as="geometry" />
        </mxCell>
        <mxCell id="CC1CXsjN8z8HudOatYF--8" style="edgeStyle=orthogonalEdgeStyle;rounded=0;orthogonalLoop=1;jettySize=auto;html=1;entryX=0.5;entryY=1;entryDx=0;entryDy=0;" edge="1" parent="1" source="CC1CXsjN8z8HudOatYF--6" target="CC1CXsjN8z8HudOatYF--4">
          <mxGeometry relative="1" as="geometry">
            <Array as="points">
              <mxPoint x="414" y="330" />
            </Array>
          </mxGeometry>
        </mxCell>
        <mxCell id="CC1CXsjN8z8HudOatYF--6" value="printTrain(train)" style="rounded=0;whiteSpace=wrap;html=1;" vertex="1" parent="1">
          <mxGeometry x="199" y="300" width="120" height="60" as="geometry" />
        </mxCell>
        <mxCell id="CC1CXsjN8z8HudOatYF--9" value="Конец" style="ellipse;whiteSpace=wrap;html=1;" vertex="1" parent="1">
          <mxGeometry x="530" y="290" width="120" height="80" as="geometry" />
        </mxCell>
      </root>
    </mxGraphModel>
  </diagram>
</mxfile>
